<svg width="32" height="32" viewBox="0 0 32 32" fill="none" xmlns="http://www.w3.org/2000/svg">
<path d="M16.002 29C17.4687 29 18.6687 27.8 18.6687 26.3333H13.3354C13.3354 27.8 14.522 29 16.002 29ZM24.002 21V14.3333C24.002 10.24 21.8154 6.81333 18.002 5.90667V5C18.002 3.89333 17.1087 3 16.002 3C14.8954 3 14.002 3.89333 14.002 5V5.90667C10.1754 6.81333 8.00202 10.2267 8.00202 14.3333V21L6.28202 22.72C5.44202 23.56 6.02869 25 7.21535 25H24.7754C25.962 25 26.562 23.56 25.722 22.72L24.002 21Z" fill="#0054D6"/>
</svg>
