<svg width="24" height="24" viewBox="0 0 24 24" fill="none" xmlns="http://www.w3.org/2000/svg">
<g id="search">
<path id="Vector" d="M15.9772 14.4694H15.1872L14.9072 14.1994C16.1072 12.7994 16.7272 10.8894 16.3872 8.85938C15.9172 6.07938 13.5972 3.85938 10.7972 3.51938C6.56719 2.99938 3.00719 6.55938 3.52719 10.7894C3.86719 13.5894 6.08719 15.9094 8.86719 16.3794C10.8972 16.7194 12.8072 16.0994 14.2072 14.8994L14.4772 15.1794V15.9694L18.7272 20.2194C19.1372 20.6294 19.8072 20.6294 20.2172 20.2194C20.6272 19.8094 20.6272 19.1394 20.2172 18.7294L15.9772 14.4694ZM9.97719 14.4694C7.48719 14.4694 5.47719 12.4594 5.47719 9.96938C5.47719 7.47938 7.48719 5.46938 9.97719 5.46938C12.4672 5.46938 14.4772 7.47938 14.4772 9.96938C14.4772 12.4594 12.4672 14.4694 9.97719 14.4694Z" fill="#45464F"/>
</g>
</svg>
