
<svg width="74" height="77" viewBox="0 0 74 77" fill="none" xmlns="http://www.w3.org/2000/svg">
<path d="M50.5702 71.9529H66.3429C67.7611 71.9529 68.912 70.7657 68.912 69.2986V65.8986C68.912 62.3708 66.1448 59.5117 62.7302 59.5117H54.1848C50.7702 59.5117 48.0029 62.3708 48.0029 65.8986V69.2986C48.0011 70.7638 49.1502 71.9529 50.5702 71.9529Z" stroke="#3E3E3E" stroke-width="3" stroke-miterlimit="10"/>
<path d="M58.2889 59.878C61.4219 59.878 63.9617 57.254 63.9617 54.0171C63.9617 50.7802 61.4219 48.1562 58.2889 48.1562C55.156 48.1562 52.6162 50.7802 52.6162 54.0171C52.6162 57.254 55.156 59.878 58.2889 59.878Z" stroke="#3E3E3E" stroke-width="3" stroke-miterlimit="10"/>
<path d="M29.661 71.9998H45.4338C46.8519 71.9998 48.0028 70.8126 48.0028 69.3455V65.9454C48.0028 62.4176 45.2356 59.5586 41.821 59.5586H33.2756C29.861 59.5586 27.0938 62.4176 27.0938 65.9454V69.3455C27.0919 70.8107 28.241 71.9998 29.661 71.9998Z" stroke="#3E3E3E" stroke-width="3" stroke-miterlimit="10"/>
<path d="M37.3798 59.9248C40.5127 59.9248 43.0525 57.3009 43.0525 54.064C43.0525 50.8271 40.5127 48.2031 37.3798 48.2031C34.2468 48.2031 31.707 50.8271 31.707 54.064C31.707 57.3009 34.2468 59.9248 37.3798 59.9248Z" stroke="#3E3E3E" stroke-width="3" stroke-miterlimit="10"/>
<path d="M8.74976 72.0232H24.5225C25.9407 72.0232 27.0916 70.836 27.0916 69.3689V65.9689C27.0916 62.4411 24.3243 59.582 20.9098 59.582H12.3625C8.94794 59.582 6.18066 62.4411 6.18066 65.9689V69.3689C6.18066 70.836 7.32976 72.0232 8.74976 72.0232Z" stroke="#3E3E3E" stroke-width="3" stroke-miterlimit="10"/>
<path d="M16.4686 59.9483C19.6016 59.9483 22.1414 57.3243 22.1414 54.0874C22.1414 50.8506 19.6016 48.2266 16.4686 48.2266C13.3357 48.2266 10.7959 50.8506 10.7959 54.0874C10.7959 57.3243 13.3357 59.9483 16.4686 59.9483Z" stroke="#3E3E3E" stroke-width="3" stroke-miterlimit="10"/>
<path d="M8.18066 45.1675H66.9079C68.0134 45.1675 68.9079 44.2433 68.9079 43.1012V7.41008C68.9079 6.26796 68.0134 5.34375 66.9079 5.34375H8.18066C7.07521 5.34375 6.18066 6.26796 6.18066 7.41008V43.1012C6.18066 44.2433 7.07521 45.1675 8.18066 45.1675Z" stroke="#3E3E3E" stroke-width="3" stroke-miterlimit="10"/>
<path d="M26.8168 44.9724H46.9986C47.1986 44.9724 47.3622 44.8034 47.3622 44.5967V38.9181C47.3622 35.3903 44.5949 32.5312 41.1804 32.5312H32.6349C29.2204 32.5312 26.4531 35.3903 26.4531 38.9181V44.5967C26.4531 44.8034 26.6168 44.9724 26.8168 44.9724Z" stroke="#3E3E3E" stroke-width="3" stroke-miterlimit="10"/>
<path d="M36.7411 32.9014C39.874 32.9014 42.4138 30.2774 42.4138 27.0405C42.4138 23.8037 39.874 21.1797 36.7411 21.1797C33.6081 21.1797 31.0684 23.8037 31.0684 27.0405C31.0684 30.2774 33.6081 32.9014 36.7411 32.9014Z" stroke="#3E3E3E" stroke-width="3" stroke-miterlimit="10"/>
</svg>
