<svg width="48" height="22" viewBox="0 0 48 22" fill="none" xmlns="http://www.w3.org/2000/svg">
<path d="M40.4509 0.719991C36.4509 -0.480009 32.3309 0.63999 29.6709 3.29999L24.0109 8.31999L20.9709 11H20.9909L15.6109 15.78C13.9909 17.4 11.7109 18.08 9.37089 17.62C6.87089 17.12 4.81089 15.12 4.23089 12.64C3.19089 8.17999 6.55089 4.23999 10.8109 4.23999C12.6309 4.23999 14.3309 4.93999 15.6909 6.29999L16.6309 7.11999C17.3909 7.79999 18.5309 7.79999 19.2909 7.11999C20.1909 6.31999 20.1909 4.91999 19.2909 4.11999L18.4509 3.39999C16.4109 1.35999 13.6909 0.23999 10.8109 0.23999C4.85089 0.23999 0.0108948 5.07999 0.0108948 11C0.0108948 16.92 4.85089 21.76 10.8109 21.76C13.6909 21.76 16.4109 20.64 18.3509 18.7L24.0109 13.7L24.0309 13.72L27.0509 11H27.0309L32.4109 6.21999C34.0309 4.59999 36.3109 3.91999 38.6509 4.37999C41.1509 4.87999 43.2109 6.87999 43.7909 9.35999C44.8309 13.82 41.4709 17.76 37.2109 17.76C35.4109 17.76 33.6909 17.06 32.3309 15.7L31.3709 14.86C30.6109 14.18 29.4709 14.18 28.7109 14.86C27.8109 15.66 27.8109 17.06 28.7109 17.86L29.5509 18.6C31.5909 20.62 34.2909 21.74 37.1909 21.74C43.7309 21.74 48.9109 15.94 47.8509 9.23999C47.2509 5.25999 44.3109 1.85999 40.4509 0.719991Z" fill="#343A40"/>
</svg>
